<svg width="1600" height="640" viewBox="0 0 1600 640" fill="none" xmlns="http://www.w3.org/2000/svg" role="img" aria-labelledby="title desc">
  <title id="title">Dhee hero banner</title>
  <desc id="desc">Dhee turns noisy agent context into protected action context.</desc>
  <defs>
    <linearGradient id="bg" x1="0" y1="0" x2="1600" y2="640" gradientUnits="userSpaceOnUse">
      <stop offset="0" stop-color="#111111"/>
      <stop offset="0.52" stop-color="#1F1B16"/>
      <stop offset="1" stop-color="#0D2425"/>
    </linearGradient>
    <linearGradient id="card" x1="0" y1="0" x2="1" y2="1">
      <stop offset="0" stop-color="#FFF7EB"/>
      <stop offset="1" stop-color="#F6D8B3"/>
    </linearGradient>
    <linearGradient id="line" x1="260" y1="320" x2="1340" y2="320" gradientUnits="userSpaceOnUse">
      <stop offset="0" stop-color="#F27A3D"/>
      <stop offset="0.5" stop-color="#F5C15C"/>
      <stop offset="1" stop-color="#4DC6B7"/>
    </linearGradient>
    <filter id="shadow" x="-40%" y="-40%" width="180%" height="180%">
      <feDropShadow dx="0" dy="18" stdDeviation="18" flood-color="#000000" flood-opacity="0.32"/>
    </filter>
    <pattern id="grid" width="44" height="44" patternUnits="userSpaceOnUse">
      <path d="M44 0H0V44" stroke="#FFFFFF" stroke-opacity="0.045" stroke-width="1"/>
    </pattern>
  </defs>

  <rect width="1600" height="640" rx="36" fill="url(#bg)"/>
  <rect width="1600" height="640" rx="36" fill="url(#grid)"/>

  <g opacity="0.32">
    <path d="M112 500H1488" stroke="#FFFFFF" stroke-opacity="0.22"/>
    <path d="M128 418H1472" stroke="#FFFFFF" stroke-opacity="0.12"/>
    <path d="M210 112V528" stroke="#FFFFFF" stroke-opacity="0.1"/>
    <path d="M1390 116V528" stroke="#FFFFFF" stroke-opacity="0.1"/>
  </g>

  <g transform="translate(112 120)">
    <rect x="0" y="0" width="356" height="384" rx="28" fill="#FFFFFF" fill-opacity="0.07" stroke="#FFFFFF" stroke-opacity="0.11"/>
    <text x="32" y="56" fill="#FFF7EB" font-family="Inter, ui-sans-serif, system-ui, -apple-system, BlinkMacSystemFont, 'Segoe UI', sans-serif" font-size="18" font-weight="700" letter-spacing="2">NOISY REALITY</text>
    <g fill="#FFFFFF" fill-opacity="0.16">
      <rect x="32" y="96" width="244" height="12" rx="6"/>
      <rect x="32" y="126" width="180" height="12" rx="6"/>
      <rect x="32" y="156" width="260" height="12" rx="6"/>
      <rect x="32" y="206" width="210" height="12" rx="6"/>
      <rect x="32" y="236" width="286" height="12" rx="6"/>
      <rect x="32" y="266" width="148" height="12" rx="6"/>
      <rect x="32" y="316" width="250" height="12" rx="6"/>
    </g>
    <g fill="#F27A3D">
      <circle cx="300" cy="102" r="5"/>
      <circle cx="262" cy="212" r="5"/>
      <circle cx="206" cy="320" r="5"/>
    </g>
  </g>

  <g transform="translate(1244 120)">
    <rect x="0" y="0" width="244" height="384" rx="28" fill="#FFFFFF" fill-opacity="0.07" stroke="#FFFFFF" stroke-opacity="0.11"/>
    <text x="30" y="56" fill="#FFF7EB" font-family="Inter, ui-sans-serif, system-ui, -apple-system, BlinkMacSystemFont, 'Segoe UI', sans-serif" font-size="18" font-weight="700" letter-spacing="2">PROOF</text>
    <g fill="#4DC6B7">
      <path d="M64 130L100 166L178 92" stroke="#4DC6B7" stroke-width="14" stroke-linecap="round" stroke-linejoin="round"/>
      <circle cx="86" cy="250" r="8"/>
      <circle cx="122" cy="250" r="8"/>
      <circle cx="158" cy="250" r="8"/>
    </g>
    <g fill="#FFFFFF" fill-opacity="0.18">
      <rect x="44" y="302" width="148" height="12" rx="6"/>
      <rect x="66" y="330" width="104" height="12" rx="6"/>
    </g>
  </g>

  <path d="M466 316C566 244 654 244 754 316C854 388 948 388 1050 316C1120 266 1184 250 1246 268" stroke="url(#line)" stroke-width="7" stroke-linecap="round"/>
  <path d="M1218 244L1248 268L1210 278" stroke="#4DC6B7" stroke-width="7" stroke-linecap="round" stroke-linejoin="round"/>

  <g filter="url(#shadow)">
    <rect x="548" y="92" width="504" height="456" rx="34" fill="url(#card)"/>
    <rect x="572" y="116" width="456" height="408" rx="24" fill="#1A1714"/>
    <rect x="572" y="116" width="456" height="408" rx="24" stroke="#FFFFFF" stroke-opacity="0.12"/>
    <text x="800" y="188" text-anchor="middle" fill="#F8EBD9" font-family="Georgia, 'Times New Roman', serif" font-size="92" font-weight="700">Dhee</text>
    <text x="800" y="240" text-anchor="middle" fill="#F3B26E" font-family="Inter, ui-sans-serif, system-ui, -apple-system, BlinkMacSystemFont, 'Segoe UI', sans-serif" font-size="18" font-weight="800" letter-spacing="3">CONTEXT COMPILER</text>
    <text x="800" y="300" text-anchor="middle" fill="#FFF7EB" font-family="Inter, ui-sans-serif, system-ui, -apple-system, BlinkMacSystemFont, 'Segoe UI', sans-serif" font-size="34" font-weight="750">Messy work in.</text>
    <text x="800" y="344" text-anchor="middle" fill="#FFF7EB" font-family="Inter, ui-sans-serif, system-ui, -apple-system, BlinkMacSystemFont, 'Segoe UI', sans-serif" font-size="34" font-weight="750">Deterministic action out.</text>
    <g transform="translate(626 394)">
      <rect x="0" y="0" width="348" height="56" rx="18" fill="#FFFFFF" fill-opacity="0.08" stroke="#FFFFFF" stroke-opacity="0.12"/>
      <text x="174" y="35" text-anchor="middle" fill="#F8EBD9" font-family="Inter, ui-sans-serif, system-ui, -apple-system, BlinkMacSystemFont, 'Segoe UI', sans-serif" font-size="17" font-weight="700">compile - supervise - verify - remember</text>
    </g>
  </g>

  <g font-family="Inter, ui-sans-serif, system-ui, -apple-system, BlinkMacSystemFont, 'Segoe UI', sans-serif" font-size="17" font-weight="800" letter-spacing="1">
    <rect x="352" y="510" width="190" height="48" rx="24" fill="#F27A3D"/>
    <text x="447" y="540" text-anchor="middle" fill="#171310">LOCAL FIRST</text>
    <rect x="574" y="510" width="222" height="48" rx="24" fill="#F5C15C"/>
    <text x="685" y="540" text-anchor="middle" fill="#171310">PROOF BUNDLES</text>
    <rect x="828" y="510" width="220" height="48" rx="24" fill="#FFF7EB"/>
    <text x="938" y="540" text-anchor="middle" fill="#171310">UPDATE CAPSULES</text>
    <rect x="1080" y="510" width="180" height="48" rx="24" fill="#4DC6B7"/>
    <text x="1170" y="540" text-anchor="middle" fill="#171310">GIT SHARED</text>
  </g>
</svg>
