<svg xmlns="http://www.w3.org/2000/svg" viewBox="0 0 1500 620" role="img" aria-labelledby="title desc">
  <title id="title">Dhee coding agent flow</title>
  <desc id="desc">Sketch flow from user task to context packet, coding agent, verification, and durable learning.</desc>
  <defs>
    <marker id="arrow" markerWidth="12" markerHeight="12" refX="10" refY="6" orient="auto">
      <path d="M2 2 L10 6 L2 10" fill="none" stroke="#22272e" stroke-width="2" stroke-linecap="round" stroke-linejoin="round"/>
    </marker>
    <style>
      .paper { fill: #fffaf0; }
      .ink { stroke: #22272e; stroke-width: 3; stroke-linecap: round; stroke-linejoin: round; fill: none; }
      .thin { stroke: #22272e; stroke-width: 2; stroke-linecap: round; stroke-linejoin: round; fill: none; }
      .arrow { marker-end: url(#arrow); }
      .title { font: 700 42px Inter, ui-sans-serif, system-ui, -apple-system, BlinkMacSystemFont, "Segoe UI", sans-serif; fill: #22272e; }
      .label { font: 700 26px Inter, ui-sans-serif, system-ui, -apple-system, BlinkMacSystemFont, "Segoe UI", sans-serif; fill: #22272e; }
      .small { font: 500 18px Inter, ui-sans-serif, system-ui, -apple-system, BlinkMacSystemFont, "Segoe UI", sans-serif; fill: #48515c; }
      .tiny { font: 700 16px Inter, ui-sans-serif, system-ui, -apple-system, BlinkMacSystemFont, "Segoe UI", sans-serif; fill: #48515c; }
    </style>
  </defs>

  <rect class="paper" width="1500" height="620"/>
  <text class="title" x="63" y="78">What Dhee does beside a coding agent</text>
  <path class="thin" opacity=".14" d="M57 103 C259 79 449 116 633 94 C843 70 1006 113 1194 86 C1320 68 1411 82 1455 68"/>

  <g transform="translate(70 182)">
    <path d="M11 8 C71 -3 170 1 229 9 C252 12 266 29 264 55 C261 93 269 128 243 146 C207 170 62 159 24 148 C3 142 -4 117 3 90 C11 55 -10 26 11 8 Z" fill="#d9ecff"/>
    <path class="ink" d="M11 8 C71 -3 170 1 229 9 C252 12 266 29 264 55 C261 93 269 128 243 146 C207 170 62 159 24 148 C3 142 -4 117 3 90 C11 55 -10 26 11 8 Z"/>
    <circle cx="39" cy="44" r="18" fill="#fffaf0" class="thin"/>
    <text class="tiny" x="34" y="50">1</text>
    <text class="label" x="69" y="51">User task</text>
    <text class="small" x="31" y="91">"fix flaky auth tests"</text>
    <text class="small" x="31" y="120">plus current repo state</text>
  </g>

  <g transform="translate(365 145)">
    <path d="M13 11 C87 -4 204 2 285 11 C316 15 335 38 330 72 C324 120 342 173 311 200 C273 232 79 219 31 203 C5 194 -5 160 5 122 C15 79 -13 32 13 11 Z" fill="#fff0b8"/>
    <path class="ink" d="M13 11 C87 -4 204 2 285 11 C316 15 335 38 330 72 C324 120 342 173 311 200 C273 232 79 219 31 203 C5 194 -5 160 5 122 C15 79 -13 32 13 11 Z"/>
    <circle cx="43" cy="49" r="18" fill="#fffaf0" class="thin"/>
    <text class="tiny" x="38" y="55">2</text>
    <text class="label" x="74" y="56">Dhee packet</text>
    <text class="small" x="35" y="97">handoff + memories</text>
    <text class="small" x="35" y="126">repo brain localization</text>
    <text class="small" x="35" y="155">risk + proof obligations</text>
  </g>

  <g transform="translate(748 182)">
    <path d="M10 8 C72 -4 176 0 240 10 C264 13 279 31 277 57 C274 97 282 129 257 148 C220 174 64 160 25 149 C4 142 -4 117 3 90 C11 57 -11 25 10 8 Z" fill="#e6dcff"/>
    <path class="ink" d="M10 8 C72 -4 176 0 240 10 C264 13 279 31 277 57 C274 97 282 129 257 148 C220 174 64 160 25 149 C4 142 -4 117 3 90 C11 57 -11 25 10 8 Z"/>
    <circle cx="39" cy="45" r="18" fill="#fffaf0" class="thin"/>
    <text class="tiny" x="34" y="51">3</text>
    <text class="label" x="69" y="52">Agent edits</text>
    <text class="small" x="31" y="92">writes stay in scope</text>
    <text class="small" x="31" y="121">large context stays pointed</text>
  </g>

  <g transform="translate(1054 145)">
    <path d="M13 10 C86 -4 204 2 286 11 C318 15 336 38 331 73 C323 124 342 174 311 201 C273 232 79 220 31 203 C5 194 -5 160 5 122 C16 79 -13 32 13 10 Z" fill="#d9f1cf"/>
    <path class="ink" d="M13 10 C86 -4 204 2 286 11 C318 15 336 38 331 73 C323 124 342 174 311 201 C273 232 79 220 31 203 C5 194 -5 160 5 122 C16 79 -13 32 13 10 Z"/>
    <circle cx="43" cy="49" r="18" fill="#fffaf0" class="thin"/>
    <text class="tiny" x="38" y="55">4</text>
    <text class="label" x="74" y="56">Verify</text>
    <text class="small" x="35" y="97">tests, diffs, release gate</text>
    <text class="small" x="35" y="126">why this patch is safe</text>
    <text class="small" x="35" y="155">what still needs review</text>
  </g>

  <path class="ink arrow" d="M337 260 C359 252 365 250 386 246"/>
  <path class="ink arrow" d="M702 255 C718 256 729 258 747 260"/>
  <path class="ink arrow" d="M1030 260 C1045 255 1052 252 1069 248"/>

  <g transform="translate(516 413)">
    <path d="M9 8 C97 -7 273 0 382 12 C411 15 429 34 425 63 C418 109 435 149 405 169 C358 201 91 183 32 169 C5 162 -5 134 4 101 C13 66 -12 27 9 8 Z" fill="#ffe1cf"/>
    <path class="ink" d="M9 8 C97 -7 273 0 382 12 C411 15 429 34 425 63 C418 109 435 149 405 169 C358 201 91 183 32 169 C5 162 -5 134 4 101 C13 66 -12 27 9 8 Z"/>
    <circle cx="41" cy="48" r="18" fill="#fffaf0" class="thin"/>
    <text class="tiny" x="36" y="54">5</text>
    <text class="label" x="72" y="55">Learn carefully</text>
    <text class="small" x="34" y="96">durable decisions are promoted</text>
    <text class="small" x="34" y="125">test noise and passive observations stay suppressed</text>
  </g>

  <path class="thin arrow" d="M1200 362 C1111 425 1001 454 946 477"/>
  <path class="thin arrow" d="M562 413 C501 365 480 314 482 249"/>
</svg>
